<svg width="61" height="60" viewBox="0 0 61 60" fill="none" xmlns="http://www.w3.org/2000/svg">
<path fill-rule="evenodd" clip-rule="evenodd" d="M18.04 4.11479C18.1561 3.99839 18.2941 3.90603 18.4459 3.84301C18.5978 3.78 18.7606 3.74756 18.925 3.74756C19.0894 3.74756 19.2522 3.78 19.4041 3.84301C19.5559 3.90603 19.6939 3.99839 19.81 4.11479L22.5725 6.87979C24.7145 5.64418 27.1447 4.99568 29.6175 4.99979H31.3825C33.8573 4.99544 36.2893 5.64485 38.4325 6.88229L41.2 4.11479C41.4347 3.88041 41.7529 3.74886 42.0846 3.7491C42.4163 3.74933 42.7344 3.88133 42.9687 4.11604C43.2031 4.35076 43.3347 4.66897 43.3344 5.00068C43.3342 5.33238 43.2022 5.65041 42.9675 5.88479L40.5075 8.34479C42.0739 9.66905 43.3323 11.3194 44.1946 13.1805C45.0569 15.0416 45.5024 17.0686 45.5 19.1198C45.4993 19.3534 45.4061 19.5772 45.2406 19.7422C45.0752 19.9072 44.8511 19.9998 44.6175 19.9998H16.3825C16.1484 19.9998 15.924 19.9068 15.7585 19.7413C15.593 19.5758 15.5 19.3513 15.5 19.1173C15.5 14.7973 17.44 10.9298 20.5 8.34229L18.04 5.88479C17.9236 5.76868 17.8312 5.63074 17.7682 5.47888C17.7052 5.32701 17.6728 5.16421 17.6728 4.99979C17.6728 4.83537 17.7052 4.67257 17.7682 4.52071C17.8312 4.36885 17.9236 4.23091 18.04 4.11479ZM26.75 13.1248C26.75 13.6221 26.5525 14.099 26.2008 14.4506C25.8492 14.8022 25.3723 14.9998 24.875 14.9998C24.3777 14.9998 23.9008 14.8022 23.5492 14.4506C23.1975 14.099 23 13.6221 23 13.1248C23 12.6275 23.1975 12.1506 23.5492 11.799C23.9008 11.4473 24.3777 11.2498 24.875 11.2498C25.3723 11.2498 25.8492 11.4473 26.2008 11.799C26.5525 12.1506 26.75 12.6275 26.75 13.1248ZM36.06 14.9998C36.5573 14.9998 37.0342 14.8022 37.3858 14.4506C37.7375 14.099 37.935 13.6221 37.935 13.1248C37.935 12.6275 37.7375 12.1506 37.3858 11.799C37.0342 11.4473 36.5573 11.2498 36.06 11.2498C35.5627 11.2498 35.0858 11.4473 34.7342 11.799C34.3825 12.1506 34.185 12.6275 34.185 13.1248C34.185 13.6221 34.3825 14.099 34.7342 14.4506C35.0858 14.8022 35.5627 14.9998 36.06 14.9998Z" fill="white"/>
<path d="M10.5 22.3677C9.83696 22.3677 9.20107 22.6311 8.73223 23.0999C8.26339 23.5688 8 24.2046 8 24.8677V39.8677C8 40.5307 8.26339 41.1666 8.73223 41.6354C9.20107 42.1043 9.83696 42.3677 10.5 42.3677C11.163 42.3677 11.7989 42.1043 12.2678 41.6354C12.7366 41.1666 13 40.5307 13 39.8677V24.8677C13 24.2046 12.7366 23.5688 12.2678 23.0999C11.7989 22.6311 11.163 22.3677 10.5 22.3677ZM18 22.3677C17.337 22.3677 16.7011 22.6311 16.2322 23.0999C15.7634 23.5688 15.5 24.2046 15.5 24.8677V47.3677C15.5 48.0307 15.7634 48.6666 16.2322 49.1354C16.7011 49.6043 17.337 49.8677 18 49.8677H43C43.663 49.8677 44.2989 49.6043 44.7678 49.1354C45.2366 48.6666 45.5 48.0307 45.5 47.3677V24.8677C45.5 24.2046 45.2366 23.5688 44.7678 23.0999C44.2989 22.6311 43.663 22.3677 43 22.3677H18ZM48.525 24.8677C48.525 24.2046 48.7884 23.5688 49.2572 23.0999C49.7261 22.6311 50.362 22.3677 51.025 22.3677C51.688 22.3677 52.3239 22.6311 52.7928 23.0999C53.2616 23.5688 53.525 24.2046 53.525 24.8677V39.8677C53.525 40.5307 53.2616 41.1666 52.7928 41.6354C52.3239 42.1043 51.688 42.3677 51.025 42.3677C50.362 42.3677 49.7261 42.1043 49.2572 41.6354C48.7884 41.1666 48.525 40.5307 48.525 39.8677V24.8677ZM19.9825 52.5002C19.8861 52.5002 19.7906 52.5192 19.7016 52.5562C19.6126 52.5931 19.5317 52.6473 19.4637 52.7156C19.3956 52.7839 19.3417 52.8649 19.305 52.9541C19.2684 53.0433 19.2497 53.1388 19.25 53.2352V53.7502C19.25 54.9105 19.7109 56.0233 20.5314 56.8438C21.3519 57.6642 22.4647 58.1252 23.625 58.1252C24.7853 58.1252 25.8981 57.6642 26.7186 56.8438C27.5391 56.0233 28 54.9105 28 53.7502V53.2352C28.0003 53.1388 27.9816 53.0433 27.945 52.9541C27.9083 52.8649 27.8544 52.7839 27.7863 52.7156C27.7183 52.6473 27.6374 52.5931 27.5484 52.5562C27.4594 52.5192 27.3639 52.5002 27.2675 52.5002H19.9825ZM33 53.2352C33 52.8277 33.3275 52.5002 33.7325 52.5002H41.015C41.4225 52.5002 41.75 52.8277 41.75 53.2352V53.7502C41.75 54.9105 41.2891 56.0233 40.4686 56.8438C39.6481 57.6642 38.5353 58.1252 37.375 58.1252C36.2147 58.1252 35.1019 57.6642 34.2814 56.8438C33.4609 56.0233 33 54.9105 33 53.7502V53.2352Z" fill="white"/>
</svg>
