<svg width="61" height="60" viewBox="0 0 61 60" fill="none" xmlns="http://www.w3.org/2000/svg">
<path d="M49.6619 42.0276C48.9696 43.6413 48.1143 45.1801 47.1094 46.6201C45.7669 48.5376 44.6644 49.8626 43.8194 50.6001C42.5069 51.8051 41.0969 52.4251 39.5894 52.4601C38.5094 52.4601 37.2044 52.1526 35.6844 51.5276C34.1594 50.9051 32.7594 50.6001 31.4769 50.6001C30.1344 50.6001 28.6944 50.9051 27.1519 51.5276C25.6119 52.1526 24.3669 52.4801 23.4144 52.5101C21.9719 52.5726 20.5294 51.9376 19.0919 50.6001C18.1744 49.8001 17.0269 48.4251 15.6494 46.4801C14.1744 44.4076 12.9619 41.9951 12.0119 39.2526C10.9944 36.2851 10.4844 33.4151 10.4844 30.6351C10.4844 27.4526 11.1719 24.7051 12.5494 22.4051C13.5912 20.5987 15.0807 19.0911 16.8744 18.0276C18.643 16.9667 20.6621 16.3955 22.7244 16.3726C23.8744 16.3726 25.3819 16.7276 27.2494 17.4276C29.1169 18.1276 30.3169 18.4826 30.8394 18.4826C31.2344 18.4826 32.5619 18.0651 34.8219 17.2376C36.9544 16.4701 38.7544 16.1526 40.2294 16.2776C44.2294 16.6001 47.2319 18.1751 49.2294 21.0151C45.6544 23.1826 43.8869 26.2151 43.9219 30.1076C43.9519 33.1401 45.0544 35.6626 47.2144 37.6651C48.1693 38.5789 49.2835 39.3101 50.5019 39.8226C50.2369 40.5901 49.9569 41.3226 49.6619 42.0276ZM40.4944 5.95006C40.4944 8.32506 39.6244 10.5451 37.8969 12.5976C35.8069 15.0376 33.2819 16.4501 30.5444 16.2276C30.5086 15.9289 30.491 15.6283 30.4919 15.3276C30.4919 13.0451 31.4819 10.6051 33.2494 8.60756C34.1294 7.59756 35.2494 6.75506 36.6069 6.08506C37.9619 5.42506 39.2419 5.06006 40.4469 4.99756C40.4794 5.31756 40.4944 5.63506 40.4944 5.95006Z" fill="white"/>
</svg>
