<svg width="18" height="20" viewBox="0 0 18 20" fill="none" xmlns="http://www.w3.org/2000/svg">
<path d="M14.4465 10.6253C14.4745 13.652 17.096 14.6592 17.125 14.6721C17.1028 14.7431 16.7061 16.1074 15.7439 17.5166C14.9121 18.735 14.0488 19.9489 12.6888 19.974C11.3526 19.9987 10.9229 19.1799 9.39515 19.1799C7.86784 19.1799 7.39043 19.9489 6.12547 19.9987C4.81278 20.0485 3.81315 18.6812 2.9745 17.4673C1.26064 14.9843 -0.0490742 10.4508 1.70954 7.39059C2.58317 5.87087 4.1445 4.90859 5.83907 4.88391C7.12809 4.85929 8.3448 5.75299 9.1328 5.75299C9.92029 5.75299 11.3988 4.67825 12.9532 4.83607C13.6038 4.86323 15.4304 5.09943 16.6033 6.81992C16.5087 6.87863 14.4238 8.09498 14.4465 10.6254M11.9352 3.19332C12.6321 2.3479 13.1012 1.17106 12.9732 0C11.9686 0.040458 10.7539 0.670866 10.0333 1.51578C9.3876 2.26406 8.82208 3.46164 8.97468 4.60948C10.0944 4.69631 11.2382 4.03925 11.9352 3.19332Z" fill="#140227"/>
</svg>
