<svg width="32" height="32" viewBox="0 0 32 32" fill="none" xmlns="http://www.w3.org/2000/svg">
<g clip-path="url(#clip0_2478_12200)">
<path d="M8.88867 4.62231H24.8887V6.00009H8.88867V4.62231Z" fill="#755AE2"/>
<path d="M25.7771 7.11117H8.76373C8.53689 7.10795 8.31305 7.05882 8.10571 6.96675C7.89837 6.87468 7.71182 6.74156 7.55732 6.57544C7.40283 6.40931 7.28358 6.21361 7.20677 6.00014C7.12995 5.78668 7.09717 5.55987 7.1104 5.33339C7.10929 4.88268 7.27942 4.44838 7.58636 4.11834C7.89329 3.7883 8.31413 3.58716 8.76373 3.55561H25.7771C26.0128 3.55561 26.2389 3.46196 26.4056 3.29526C26.5723 3.12856 26.666 2.90247 26.666 2.66672C26.666 2.43097 26.5723 2.20488 26.4056 2.03818C26.2389 1.87148 26.0128 1.77783 25.7771 1.77783H8.76373C7.84248 1.8101 6.96976 2.19889 6.32964 2.86222C5.68953 3.52556 5.33206 4.41157 5.33262 5.33339C5.32402 5.47845 5.32402 5.62389 5.33262 5.76894C5.32406 5.8398 5.32406 5.91142 5.33262 5.98228V26.6667C5.33206 27.5885 5.68953 28.4746 6.32964 29.1379C6.96976 29.8012 7.84248 30.19 8.76373 30.2223H25.7771C26.0128 30.2223 26.2389 30.1286 26.4056 29.9619C26.5723 29.7952 26.666 29.5691 26.666 29.3334V8.06228C26.6665 7.82045 26.5749 7.5875 26.4097 7.41082C26.2446 7.23413 26.0184 7.12699 25.7771 7.11117ZM24.8882 28.4445H8.76373C8.31413 28.413 7.89329 28.2118 7.58636 27.8818C7.27942 27.5517 7.10929 27.1174 7.1104 26.6667V8.48894C7.61581 8.76776 8.18676 8.90589 8.76373 8.88894H24.8882V28.4445Z" fill="#755AE2"/>
</g>
<defs>
<clipPath id="clip0_2478_12200">
<rect width="32" height="32" fill="white"/>
</clipPath>
</defs>
</svg>
