<svg width="32" height="32" viewBox="0 0 32 32" fill="none" xmlns="http://www.w3.org/2000/svg">
<path d="M7.66602 7.33325C7.66602 6.71441 7.91185 6.12092 8.34943 5.68334C8.78702 5.24575 9.38051 4.99992 9.99935 4.99992C10.6182 4.99992 11.2117 5.24575 11.6493 5.68334C12.0868 6.12092 12.3327 6.71441 12.3327 7.33325C12.3327 7.95209 12.0868 8.54558 11.6493 8.98317C11.2117 9.42075 10.6182 9.66659 9.99935 9.66659C9.38051 9.66659 8.78702 9.42075 8.34943 8.98317C7.91185 8.54558 7.66602 7.95209 7.66602 7.33325ZM9.99935 3.33325C9.47406 3.33325 8.95392 3.43671 8.46862 3.63773C7.98331 3.83875 7.54236 4.13339 7.17092 4.50482C6.79949 4.87626 6.50485 5.31722 6.30383 5.80252C6.10281 6.28782 5.99935 6.80796 5.99935 7.33325C5.99935 7.85854 6.10281 8.37868 6.30383 8.86399C6.50485 9.34929 6.79949 9.79024 7.17092 10.1617C7.54236 10.5331 7.98331 10.8278 8.46862 11.0288C8.95392 11.2298 9.47406 11.3333 9.99935 11.3333C11.0602 11.3333 12.0776 10.9118 12.8278 10.1617C13.5779 9.41153 13.9993 8.39412 13.9993 7.33325C13.9993 6.27239 13.5779 5.25497 12.8278 4.50482C12.0776 3.75468 11.0602 3.33325 9.99935 3.33325ZM19.666 7.33325C19.666 6.71441 19.9118 6.12092 20.3494 5.68334C20.787 5.24575 21.3805 4.99992 21.9993 4.99992C22.6182 4.99992 23.2117 5.24575 23.6493 5.68334C24.0868 6.12092 24.3327 6.71441 24.3327 7.33325C24.3327 7.95209 24.0868 8.54558 23.6493 8.98317C23.2117 9.42075 22.6182 9.66659 21.9993 9.66659C21.3805 9.66659 20.787 9.42075 20.3494 8.98317C19.9118 8.54558 19.666 7.95209 19.666 7.33325ZM21.9993 3.33325C21.4741 3.33325 20.9539 3.43671 20.4686 3.63773C19.9833 3.83875 19.5424 4.13339 19.1709 4.50482C18.7995 4.87626 18.5048 5.31722 18.3038 5.80252C18.1028 6.28782 17.9993 6.80796 17.9993 7.33325C17.9993 7.85854 18.1028 8.37868 18.3038 8.86399C18.5048 9.34929 18.7995 9.79024 19.1709 10.1617C19.5424 10.5331 19.9833 10.8278 20.4686 11.0288C20.9539 11.2298 21.4741 11.3333 21.9993 11.3333C23.0602 11.3333 24.0776 10.9118 24.8278 10.1617C25.5779 9.41153 25.9993 8.39412 25.9993 7.33325C25.9993 6.27239 25.5779 5.25497 24.8278 4.50482C24.0776 3.75468 23.0602 3.33325 21.9993 3.33325ZM2.66602 14.9639C2.66602 14.6622 2.72544 14.3635 2.84089 14.0848C2.95634 13.806 3.12556 13.5528 3.33889 13.3395C3.55222 13.1261 3.80547 12.9569 4.0842 12.8415C4.36292 12.726 4.66166 12.6666 4.96335 12.6666H11.3793C11.0803 13.1832 10.8706 13.7467 10.7593 14.3333H4.96335C4.88053 14.3333 4.79852 14.3496 4.722 14.3813C4.64549 14.413 4.57596 14.4594 4.5174 14.518C4.45884 14.5765 4.41238 14.6461 4.38069 14.7226C4.34899 14.7991 4.33268 14.8811 4.33268 14.9639V15.2499C4.33268 15.4299 4.33468 16.5386 5.01202 17.5866C5.60935 18.5119 6.82735 19.5333 9.46802 19.6546C8.78018 19.9665 8.20619 20.4844 7.82535 21.1366C5.67735 20.7153 4.37202 19.6679 3.61202 18.4913C2.66602 17.0266 2.66602 15.5133 2.66602 15.2513V14.9639ZM22.5307 19.6546C23.2185 19.9665 23.7925 20.4844 24.1733 21.1366C26.3213 20.7153 27.6267 19.6679 28.3867 18.4913C29.3327 17.0266 29.3327 15.5133 29.3327 15.2513V14.9646C29.3328 14.6628 29.2734 14.364 29.158 14.0852C29.0426 13.8064 28.8734 13.5531 28.66 13.3397C28.4467 13.1263 28.1934 12.957 27.9147 12.8415C27.6359 12.726 27.3371 12.6666 27.0353 12.6666H20.6193C20.9127 13.1753 21.126 13.7366 21.2393 14.3333H27.0353C27.3833 14.3333 27.666 14.6159 27.666 14.9639V15.2499C27.666 15.4299 27.664 16.5386 26.9867 17.5866C26.3893 18.5119 25.1713 19.5333 22.5307 19.6546ZM15.9993 12.9999C15.3805 12.9999 14.787 13.2458 14.3494 13.6833C13.9118 14.1209 13.666 14.7144 13.666 15.3333C13.666 15.9521 13.9118 16.5456 14.3494 16.9832C14.787 17.4208 15.3805 17.6666 15.9993 17.6666C16.6182 17.6666 17.2117 17.4208 17.6493 16.9832C18.0868 16.5456 18.3327 15.9521 18.3327 15.3333C18.3327 14.7144 18.0868 14.1209 17.6493 13.6833C17.2117 13.2458 16.6182 12.9999 15.9993 12.9999ZM11.9993 15.3333C11.9993 14.2724 12.4208 13.255 13.1709 12.5048C13.9211 11.7547 14.9385 11.3333 15.9993 11.3333C17.0602 11.3333 18.0776 11.7547 18.8278 12.5048C19.5779 13.255 19.9993 14.2724 19.9993 15.3333C19.9993 16.3941 19.5779 17.4115 18.8278 18.1617C18.0776 18.9118 17.0602 19.3333 15.9993 19.3333C14.9385 19.3333 13.9211 18.9118 13.1709 18.1617C12.4208 17.4115 11.9993 16.3941 11.9993 15.3333ZM8.66602 22.9639C8.66602 22.3546 8.90805 21.7703 9.33889 21.3395C9.76972 20.9086 10.3541 20.6666 10.9633 20.6666H21.0353C21.6446 20.6666 22.229 20.9086 22.6598 21.3395C23.0906 21.7703 23.3327 22.3546 23.3327 22.9639V23.2513C23.3327 23.5139 23.3327 25.0266 22.3867 26.4913C21.398 28.0219 19.488 29.3333 15.9993 29.3333C12.5107 29.3333 10.6007 28.0219 9.61201 26.4913C8.66602 25.0266 8.66602 23.5133 8.66602 23.2513V22.9639ZM10.9633 22.3333C10.7961 22.3333 10.6357 22.3997 10.5174 22.518C10.3991 22.6362 10.3327 22.7967 10.3327 22.9639V23.2499C10.3327 23.4299 10.3347 24.5386 11.012 25.5866C11.648 26.5719 12.988 27.6666 15.9993 27.6666C19.0107 27.6666 20.3507 26.5719 20.9867 25.5866C21.664 24.5386 21.666 23.4299 21.666 23.2499V22.9639C21.666 22.7967 21.5996 22.6362 21.4813 22.518C21.363 22.3997 21.2026 22.3333 21.0353 22.3333H10.9633Z" fill="#755AE2"/>
</svg>
