<svg width="32" height="32" viewBox="0 0 32 32" fill="none" xmlns="http://www.w3.org/2000/svg">
<path d="M23.53 7.46875L16.5 0.445C16.3635 0.319829 16.1852 0.250265 16 0.25H1C0.801088 0.25 0.610322 0.329018 0.46967 0.46967C0.329018 0.610322 0.25 0.801088 0.25 1V16C0.249923 16.0987 0.269315 16.1964 0.307067 16.2875C0.344818 16.3787 0.400187 16.4615 0.47 16.5312L7.47 23.5312C7.61072 23.6715 7.80133 23.7502 8 23.75H23C23.1989 23.75 23.3897 23.671 23.5303 23.5303C23.671 23.3897 23.75 23.1989 23.75 23V8C23.7501 7.90133 23.7307 7.80362 23.6929 7.71245C23.6552 7.62129 23.5998 7.53848 23.53 7.46875ZM16.75 2.81L21.19 7.25H16.75V2.81ZM7.25 21.185L2.81 16.75H7.25V21.185ZM7.25 15.25H1.75V2.81L7.25 8.31V15.25ZM2.81 1.75H15.25V7.25H8.31L2.81 1.75ZM15.25 8.75V15.25H8.75V8.75H15.25ZM8.75 22.25V16.75H15.69L21.19 22.25H8.75ZM22.25 21.19L16.75 15.69V8.75H22.25V21.19Z" fill="#755AE2"/>
</svg>
