<svg width="20" height="20" viewBox="0 0 20 20" fill="none" xmlns="http://www.w3.org/2000/svg">
<path d="M19.8 10.2222C19.8 9.4 19.7332 8.8 19.5888 8.17779H10.2V11.8889H15.711C15.6 12.8111 15 14.2 13.6666 15.1333L13.6479 15.2575L16.6165 17.5573L16.8222 17.5778C18.711 15.8333 19.8 13.2666 19.8 10.2222Z" fill="#4285F4"/>
<path d="M10.2 20C12.8999 20 15.1666 19.1111 16.8222 17.5778L13.6666 15.1333C12.8222 15.7222 11.6888 16.1333 10.2 16.1333C7.55552 16.1333 5.3111 14.3889 4.51102 11.9778L4.39375 11.9877L1.30696 14.3766L1.26659 14.4889C2.91102 17.7555 6.28881 20 10.2 20Z" fill="#34A853"/>
<path d="M4.51102 11.9778C4.29991 11.3556 4.17774 10.6889 4.17774 10C4.17774 9.31107 4.29991 8.64443 4.49991 8.02221L4.49432 7.8897L1.36885 5.46243L1.26659 5.51107C0.588844 6.86664 0.199951 8.38889 0.199951 10C0.199951 11.6111 0.588844 13.1333 1.26659 14.4889L4.51102 11.9778Z" fill="#FBBC05"/>
<path d="M10.2 3.86664C12.0777 3.86664 13.3443 4.67775 14.0666 5.35557L16.8888 2.6C15.1555 0.988893 12.8999 0 10.2 0C6.28881 0 2.91102 2.24443 1.26659 5.51107L4.49991 8.02221C5.3111 5.61111 7.55552 3.86664 10.2 3.86664Z" fill="#EB4335"/>
</svg>
