<svg width="32" height="32" viewBox="0 0 32 32" fill="none" xmlns="http://www.w3.org/2000/svg">
<path d="M23.3538 9.97132L13.3538 0.536321C13.3489 0.532057 13.3443 0.527462 13.34 0.522571C12.9718 0.187738 12.492 0.00219727 11.9944 0.00219727C11.4967 0.00219727 11.0169 0.187738 10.6488 0.522571L10.635 0.536321L0.64625 9.97132C0.442497 10.1587 0.279855 10.3863 0.168614 10.6398C0.057374 10.8932 -4.20536e-05 11.167 2.31098e-08 11.4438V23.0001C2.31098e-08 23.5305 0.210714 24.0392 0.585786 24.4143C0.960859 24.7894 1.46957 25.0001 2 25.0001H8C8.53043 25.0001 9.03914 24.7894 9.41421 24.4143C9.78929 24.0392 10 23.5305 10 23.0001V17.0001H14V23.0001C14 23.5305 14.2107 24.0392 14.5858 24.4143C14.9609 24.7894 15.4696 25.0001 16 25.0001H22C22.5304 25.0001 23.0391 24.7894 23.4142 24.4143C23.7893 24.0392 24 23.5305 24 23.0001V11.4438C24 11.167 23.9426 10.8932 23.8314 10.6398C23.7201 10.3863 23.5575 10.1587 23.3538 9.97132ZM22 23.0001H16V17.0001C16 16.4696 15.7893 15.9609 15.4142 15.5859C15.0391 15.2108 14.5304 15.0001 14 15.0001H10C9.46957 15.0001 8.96086 15.2108 8.58579 15.5859C8.21071 15.9609 8 16.4696 8 17.0001V23.0001H2V11.4438L2.01375 11.4313L12 2.00007L21.9875 11.4288L22.0012 11.4413L22 23.0001Z" fill="#755AE2"/>
</svg>
