<svg width="24" height="24" viewBox="0 0 24 24" fill="none" xmlns="http://www.w3.org/2000/svg">
<rect width="24" height="24" rx="12" fill="#08080C"/>
<path d="M12.617 6C13.292 6.0018 13.6346 6.0054 13.9304 6.0138L14.0468 6.018C14.1812 6.0228 14.3138 6.0288 14.4739 6.036C15.1123 6.066 15.5479 6.1668 15.9301 6.31499C16.3261 6.46739 16.6597 6.67378 16.9933 7.00678C17.2984 7.30671 17.5344 7.66951 17.6851 8.06995C17.8333 8.45214 17.9341 8.88773 17.9641 9.52672C17.9713 9.68631 17.9773 9.81891 17.9821 9.95391L17.9857 10.0703C17.9947 10.3655 17.9983 10.7081 17.9995 11.3831L18.0001 11.8307V12.6166C18.0015 13.0543 17.9969 13.4919 17.9863 13.9294L17.9827 14.0458C17.9779 14.1808 17.9719 14.3134 17.9647 14.473C17.9347 15.112 17.8327 15.547 17.6851 15.9298C17.5349 16.3304 17.2988 16.6933 16.9933 16.9929C16.6933 17.2979 16.3305 17.534 15.9301 17.6847C15.5479 17.8329 15.1123 17.9337 14.4739 17.9637C14.3316 17.9704 14.1892 17.9764 14.0468 17.9817L13.9304 17.9853C13.6346 17.9937 13.292 17.9979 12.617 17.9991L12.1694 17.9997H11.384C10.9462 18.0012 10.5084 17.9966 10.0707 17.9859L9.95425 17.9823C9.81182 17.9769 9.66942 17.9707 9.52706 17.9637C8.88868 17.9337 8.45309 17.8329 8.0703 17.6847C7.66991 17.5344 7.30725 17.2982 7.00772 16.9929C6.70236 16.6931 6.46607 16.3303 6.31534 15.9298C6.16714 15.5476 6.06634 15.112 6.03635 14.473C6.02966 14.3306 6.02366 14.1882 6.01835 14.0458L6.01535 13.9294C6.00429 13.4919 5.99929 13.0543 6.00035 12.6166V11.3831C5.99867 10.9454 6.00307 10.5078 6.01355 10.0703L6.01775 9.95391C6.02255 9.81891 6.02855 9.68631 6.03575 9.52672C6.06574 8.88773 6.16654 8.45274 6.31474 8.06995C6.4654 7.6691 6.70216 7.30618 7.00832 7.00678C7.30777 6.70167 7.67019 6.46558 8.0703 6.31499C8.45309 6.1668 8.88808 6.066 9.52706 6.036C9.68666 6.0288 9.81986 6.0228 9.95425 6.018L10.0707 6.0144C10.5082 6.00374 10.9458 5.99914 11.3834 6.0006L12.617 6ZM12.0002 8.99993C11.2046 8.99993 10.4415 9.31599 9.87894 9.87859C9.31634 10.4412 9.00028 11.2042 9.00028 11.9999C9.00028 12.7955 9.31634 13.5585 9.87894 14.1211C10.4415 14.6837 11.2046 14.9998 12.0002 14.9998C12.7958 14.9998 13.5589 14.6837 14.1215 14.1211C14.6841 13.5585 15.0001 12.7955 15.0001 11.9999C15.0001 11.2042 14.6841 10.4412 14.1215 9.87859C13.5589 9.31599 12.7958 8.99993 12.0002 8.99993ZM12.0002 10.1999C12.2366 10.1999 12.4706 10.2464 12.689 10.3368C12.9074 10.4272 13.1059 10.5598 13.2731 10.7269C13.4402 10.894 13.5728 11.0924 13.6633 11.3108C13.7538 11.5291 13.8004 11.7632 13.8005 11.9996C13.8005 12.2359 13.754 12.47 13.6636 12.6884C13.5731 12.9068 13.4406 13.1052 13.2735 13.2724C13.1064 13.4396 12.908 13.5722 12.6896 13.6627C12.4712 13.7532 12.2372 13.7998 12.0008 13.7998C11.5234 13.7998 11.0656 13.6102 10.728 13.2726C10.3905 12.9351 10.2008 12.4772 10.2008 11.9999C10.2008 11.5225 10.3905 11.0647 10.728 10.7271C11.0656 10.3895 11.5234 10.1999 12.0008 10.1999M15.1507 8.09995C14.9518 8.09995 14.7611 8.17897 14.6204 8.31962C14.4798 8.46026 14.4007 8.65103 14.4007 8.84993C14.4007 9.04884 14.4798 9.2396 14.6204 9.38025C14.7611 9.5209 14.9518 9.59992 15.1507 9.59992C15.3496 9.59992 15.5404 9.5209 15.6811 9.38025C15.8217 9.2396 15.9007 9.04884 15.9007 8.84993C15.9007 8.65103 15.8217 8.46026 15.6811 8.31962C15.5404 8.17897 15.3496 8.09995 15.1507 8.09995Z" fill="white"/>
</svg>
