<svg width="24" height="24" viewBox="0 0 24 24" fill="none" xmlns="http://www.w3.org/2000/svg">
<rect width="24" height="24" rx="12" fill="#08080C"/>
<path d="M8.51836 7.6449C8.5182 7.97493 8.38537 8.29138 8.14911 8.52462C7.91285 8.75787 7.59251 8.88882 7.25855 8.88865C6.9246 8.88849 6.60438 8.75723 6.36836 8.52374C6.13234 8.29026 5.99983 7.97368 6 7.64366C6.00017 7.31363 6.13299 6.99718 6.36925 6.76393C6.60551 6.53068 6.92586 6.39974 7.25981 6.3999C7.59377 6.40007 7.91398 6.53133 8.15 6.76481C8.38603 6.99829 8.51853 7.31487 8.51836 7.6449ZM8.55614 9.81011H6.03778V17.5999H8.55614V9.81011ZM12.5352 9.81011H10.0294V17.5999H12.51V13.5121C12.51 11.2349 15.5131 11.0234 15.5131 13.5121V17.5999H18V12.666C18 8.82706 13.5551 8.97016 12.51 10.8554L12.5352 9.81011Z" fill="white"/>
</svg>
