<svg width="32" height="32" viewBox="0 0 32 32" fill="none" xmlns="http://www.w3.org/2000/svg">
<path d="M15.3333 12.0001C15.3333 11.116 15.6845 10.2682 16.3096 9.64306C16.9348 9.01794 17.7826 8.66675 18.6667 8.66675C20.1333 8.66675 21.3733 9.61341 21.8267 10.9201C21.9333 11.2667 22 11.6267 22 12.0001C22 12.4378 21.9138 12.8713 21.7463 13.2757C21.5787 13.6801 21.3332 14.0476 21.0237 14.3571C20.7142 14.6666 20.3467 14.9122 19.9423 15.0797C19.5379 15.2472 19.1044 15.3334 18.6667 15.3334C17.2133 15.3334 16 14.4134 15.52 13.1201C15.4 12.7734 15.3333 12.3867 15.3333 12.0001ZM6.66667 12.0001C6.66667 18.0001 13.44 26.2134 14.6667 27.7467L13.3333 29.3334C13.3333 29.3334 4 19.0001 4 12.0001C4 7.77341 6.81333 4.20008 10.6667 3.05341C8.21333 5.25341 6.66667 8.44008 6.66667 12.0001ZM18.6667 2.66675C23.8133 2.66675 28 6.84008 28 12.0001C28 19.0001 18.6667 29.3334 18.6667 29.3334C18.6667 29.3334 9.33333 19.0001 9.33333 12.0001C9.33333 6.84008 13.52 2.66675 18.6667 2.66675ZM18.6667 5.33341C14.9867 5.33341 12 8.32008 12 12.0001C12 13.3334 12 16.0001 18.6667 24.9467C25.3333 16.0001 25.3333 13.3334 25.3333 12.0001C25.3333 8.32008 22.3467 5.33341 18.6667 5.33341Z" fill="#755AE2"/>
</svg>
