<svg width="32" height="32" viewBox="0 0 32 32" fill="none" xmlns="http://www.w3.org/2000/svg">
<path fill-rule="evenodd" clip-rule="evenodd" d="M8.00117 14.3999C8.84986 14.3999 9.6638 14.0628 10.2639 13.4626C10.864 12.8625 11.2012 12.0486 11.2012 11.1999C11.2012 10.3512 10.864 9.53728 10.2639 8.93716C9.6638 8.33704 8.84986 7.9999 8.00117 7.9999C7.15248 7.9999 6.33855 8.33704 5.73843 8.93716C5.13831 9.53728 4.80117 10.3512 4.80117 11.1999C4.80117 12.0486 5.13831 12.8625 5.73843 13.4626C6.33855 14.0628 7.15248 14.3999 8.00117 14.3999ZM8.00117 15.9999C8.63152 15.9999 9.25569 15.8757 9.83805 15.6345C10.4204 15.3933 10.9496 15.0397 11.3953 14.594C11.841 14.1483 12.1946 13.6191 12.4358 13.0368C12.677 12.4544 12.8012 11.8302 12.8012 11.1999C12.8012 10.5696 12.677 9.94538 12.4358 9.36302C12.1946 8.78066 11.841 8.25151 11.3953 7.80579C10.9496 7.36007 10.4204 7.0065 9.83805 6.76528C9.25569 6.52406 8.63152 6.3999 8.00117 6.3999C6.72813 6.3999 5.50723 6.90562 4.60706 7.80579C3.70688 8.70596 3.20117 9.92686 3.20117 11.1999C3.20117 12.4729 3.70688 13.6938 4.60706 14.594C5.50723 15.4942 6.72813 15.9999 8.00117 15.9999Z" fill="#755AE2"/>
<path fill-rule="evenodd" clip-rule="evenodd" d="M6.16679 14.2336C6.24129 14.3079 6.3004 14.3962 6.34073 14.4934C6.38106 14.5906 6.40182 14.6948 6.40182 14.8C6.40182 14.9052 6.38106 15.0094 6.34073 15.1066C6.3004 15.2038 6.24129 15.2921 6.16679 15.3664L5.62599 15.9056C4.58525 16.9466 4.00053 18.3583 4.00039 19.8304V22.8C4.00039 23.0122 3.91611 23.2156 3.76608 23.3657C3.61605 23.5157 3.41256 23.6 3.20039 23.6C2.98822 23.6 2.78473 23.5157 2.63471 23.3657C2.48468 23.2156 2.40039 23.0122 2.40039 22.8V19.8304C2.40062 17.934 3.15397 16.1154 4.49479 14.7744L5.03399 14.2336C5.1083 14.1591 5.19658 14.1 5.29378 14.0596C5.39097 14.0193 5.49516 13.9986 5.60039 13.9986C5.70562 13.9986 5.80981 14.0193 5.907 14.0596C6.0042 14.1 6.09248 14.1591 6.16679 14.2336ZM25.034 13.7536C24.9595 13.8279 24.9004 13.9162 24.8601 14.0134C24.8197 14.1106 24.799 14.2148 24.799 14.32C24.799 14.4252 24.8197 14.5294 24.8601 14.6266C24.9004 14.7238 24.9595 14.8121 25.034 14.8864L25.5748 15.4256C26.0902 15.941 26.499 16.5529 26.7779 17.2263C27.0569 17.8997 27.2004 18.6215 27.2004 19.3504V22.8C27.2004 23.0122 27.2847 23.2156 27.4347 23.3657C27.5847 23.5157 27.7882 23.6 28.0004 23.6C28.2126 23.6 28.416 23.5157 28.5661 23.3657C28.7161 23.2156 28.8004 23.0122 28.8004 22.8V19.3504C28.8002 17.454 28.0468 15.6354 26.706 14.2944L26.1668 13.7536C26.0925 13.6791 26.0042 13.62 25.907 13.5796C25.8098 13.5393 25.7056 13.5186 25.6004 13.5186C25.4952 13.5186 25.391 13.5393 25.2938 13.5796C25.1966 13.62 25.1083 13.6791 25.034 13.7536Z" fill="#755AE2"/>
<path fill-rule="evenodd" clip-rule="evenodd" d="M22.3996 14.3999C21.5509 14.3999 20.737 14.0628 20.1369 13.4626C19.5368 12.8625 19.1996 12.0486 19.1996 11.1999C19.1996 10.3512 19.5368 9.53728 20.1369 8.93716C20.737 8.33704 21.5509 7.9999 22.3996 7.9999C23.2483 7.9999 24.0622 8.33704 24.6624 8.93716C25.2625 9.53728 25.5996 10.3512 25.5996 11.1999C25.5996 12.0486 25.2625 12.8625 24.6624 13.4626C24.0622 14.0628 23.2483 14.3999 22.3996 14.3999ZM22.3996 15.9999C21.7693 15.9999 21.1451 15.8757 20.5627 15.6345C19.9804 15.3933 19.4512 15.0397 19.0055 14.594C18.5598 14.1483 18.2062 13.6191 17.965 13.0368C17.7238 12.4544 17.5996 11.8302 17.5996 11.1999C17.5996 10.5696 17.7238 9.94538 17.965 9.36302C18.2062 8.78066 18.5598 8.25151 19.0055 7.80579C19.4512 7.36007 19.9804 7.0065 20.5627 6.76528C21.1451 6.52406 21.7693 6.3999 22.3996 6.3999C23.6726 6.3999 24.8935 6.90562 25.7937 7.80579C26.6939 8.70596 27.1996 9.92686 27.1996 11.1999C27.1996 12.4729 26.6939 13.6938 25.7937 14.594C24.8935 15.4942 23.6726 15.9999 22.3996 15.9999ZM15.1996 21.1999C14.1387 21.1999 13.1213 21.6213 12.3712 22.3715C11.621 23.1216 11.1996 24.139 11.1996 25.1999V27.2799C11.1996 27.4921 11.1153 27.6956 10.9653 27.8456C10.8153 27.9956 10.6118 28.0799 10.3996 28.0799C10.1874 28.0799 9.98395 27.9956 9.83392 27.8456C9.6839 27.6956 9.59961 27.4921 9.59961 27.2799V25.1999C9.59961 23.7147 10.1896 22.2903 11.2398 21.2401C12.29 20.1899 13.7144 19.5999 15.1996 19.5999C16.6848 19.5999 18.1092 20.1899 19.1594 21.2401C20.2096 22.2903 20.7996 23.7147 20.7996 25.1999V27.2799C20.7996 27.4921 20.7153 27.6956 20.5653 27.8456C20.4153 27.9956 20.2118 28.0799 19.9996 28.0799C19.7874 28.0799 19.584 27.9956 19.4339 27.8456C19.2839 27.6956 19.1996 27.4921 19.1996 27.2799V25.1999C19.1996 24.6746 19.0961 24.1545 18.8951 23.6692C18.6941 23.1839 18.3995 22.7429 18.028 22.3715C17.6566 22 17.2156 21.7054 16.7303 21.5044C16.245 21.3034 15.7249 21.1999 15.1996 21.1999Z" fill="#755AE2"/>
<path fill-rule="evenodd" clip-rule="evenodd" d="M15.2004 18.7998C16.0491 18.7998 16.863 18.4627 17.4631 17.8625C18.0632 17.2624 18.4004 16.4485 18.4004 15.5998C18.4004 14.7511 18.0632 13.9372 17.4631 13.3371C16.863 12.7369 16.0491 12.3998 15.2004 12.3998C14.3517 12.3998 13.5378 12.7369 12.9376 13.3371C12.3375 13.9372 12.0004 14.7511 12.0004 15.5998C12.0004 16.4485 12.3375 17.2624 12.9376 17.8625C13.5378 18.4627 14.3517 18.7998 15.2004 18.7998ZM15.2004 20.3998C16.4734 20.3998 17.6943 19.8941 18.5945 18.9939C19.4947 18.0937 20.0004 16.8728 20.0004 15.5998C20.0004 14.3268 19.4947 13.1059 18.5945 12.2057C17.6943 11.3055 16.4734 10.7998 15.2004 10.7998C13.9274 10.7998 12.7065 11.3055 11.8063 12.2057C10.9061 13.1059 10.4004 14.3268 10.4004 15.5998C10.4004 16.8728 10.9061 18.0937 11.8063 18.9939C12.7065 19.8941 13.9274 20.3998 15.2004 20.3998Z" fill="#755AE2"/>
</svg>
