<svg width="24" height="24" viewBox="0 0 24 24" fill="none" xmlns="http://www.w3.org/2000/svg">
<rect width="24" height="24" rx="12" fill="#08080C"/>
<path d="M14.4002 9.74727V14.1006C14.4 14.9107 14.1476 15.7006 13.678 16.3607C13.2084 17.0208 12.5449 17.5183 11.7797 17.7841C11.0144 18.0499 10.1854 18.0708 9.40774 17.844C8.63006 17.6171 7.94231 17.1538 7.43999 16.5182C6.93767 15.8827 6.6457 15.1065 6.60463 14.2975C6.56355 13.4884 6.77542 12.6867 7.21079 12.0035C7.64617 11.3204 8.28346 10.7898 9.03416 10.4853C9.78487 10.1809 10.6117 10.1178 11.4 10.3047V12.2026C10.9888 12.0076 10.5255 11.9514 10.0796 12.0425C9.63378 12.1335 9.22957 12.3669 8.92784 12.7076C8.6261 13.0482 8.44316 13.4776 8.40655 13.9312C8.36994 14.3847 8.48163 14.8379 8.72482 15.2225C8.96802 15.6072 9.32955 15.9024 9.75501 16.0638C10.1805 16.2252 10.6469 16.244 11.0839 16.1175C11.521 15.9909 11.9052 15.7258 12.1786 15.3621C12.4521 14.9983 12.6 14.5556 12.6 14.1006V6H14.4002C14.4002 6.79571 14.7163 7.55882 15.2789 8.12147C15.8416 8.68412 16.6047 9.00022 17.4004 9.00022V10.8003C16.3094 10.802 15.2508 10.4304 14.4002 9.74727Z" fill="white"/>
</svg>
